STARTFONT 2.1
FONT -Monotype-Arial Narrow-Bold-I-Normal--14-100-100-100-P-64-iso8859-4
SIZE 10 100 100
FONTBOUNDINGBOX 14 17 -2 -4

STARTPROPERTIES 24
FOUNDRY "Monotype"
FAMILY_NAME "Arial Narrow"
WEIGHT_NAME "Bold"
SLANT "I"
SETWIDTH_NAME "Normal"
ADD_STYLE_NAME ""
PIXEL_SIZE 14
POINT_SIZE 100
RESOLUTION_X 100
RESOLUTION_Y 100
SPACING "P"
AVERAGE_WIDTH 64
CHARSET_REGISTRY "iso8859"
CHARSET_ENCODING "4"
FACE_NAME "Arial Narrow Bold Italic ISO Latin4"
_DEC_DEVICE_FONTNAMES "PS=arialnarrow-bit-lat4"
COPYRIGHT "Copyright (c) 1994 Monotype Typography Ltd."
CAP_HEIGHT 12
X_HEIGHT 8
WEIGHT 10
QUAD_WIDTH 7
DEFAULT_CHAR 160
FONT_DESCENT 4
FONT_ASCENT 13
ENDPROPERTIES

CHARS 191

STARTCHAR space
ENCODING 32
SWIDTH 228 0
DWIDTH 3 0
BBX 0 0 0 0
BITMAP
ENDCHAR

STARTCHAR exclam
ENCODING 33
SWIDTH 273 0
DWIDTH 4 0
BBX 3 10 1 0
BITMAP
60
60
60
60
C0
C0
C0
00
C0
C0
ENDCHAR

STARTCHAR quotedbl
ENCODING 34
SWIDTH 389 0
DWIDTH 5 0
BBX 6 4 0 6
BITMAP
6C
6C
D8
D8
ENDCHAR

STARTCHAR numbersign
ENCODING 35
SWIDTH 456 0
DWIDTH 6 0
BBX 9 10 -1 0
BITMAP
1B00
1B00
7F80
7F80
3600
3600
FF00
FF00
6C00
6C00
ENDCHAR

STARTCHAR dollar
ENCODING 36
SWIDTH 456 0
DWIDTH 6 0
BBX 6 13 0 -1
BITMAP
08
08
38
7C
6C
70
30
18
D8
F8
70
40
40
ENDCHAR

STARTCHAR percent
ENCODING 37
SWIDTH 729 0
DWIDTH 10 0
BBX 9 10 1 0
BITMAP
7180
D300
9600
B400
EC00
1B80
1680
3480
6580
C700
ENDCHAR

STARTCHAR ampersand
ENCODING 38
SWIDTH 592 0
DWIDTH 8 0
BBX 7 10 1 0
BITMAP
18
3C
6C
38
70
DA
CE
CC
FE
72
ENDCHAR

STARTCHAR quoteright
ENCODING 39
SWIDTH 228 0
DWIDTH 3 0
BBX 2 4 1 6
BITMAP
C0
C0
40
80
ENDCHAR

STARTCHAR parenleft
ENCODING 40
SWIDTH 273 0
DWIDTH 4 0
BBX 5 13 0 -3
BITMAP
18
30
60
60
60
C0
C0
C0
C0
C0
60
60
30
ENDCHAR

STARTCHAR parenright
ENCODING 41
SWIDTH 273 0
DWIDTH 4 0
BBX 5 13 -1 -3
BITMAP
60
30
30
18
18
18
18
18
18
30
30
60
C0
ENDCHAR

STARTCHAR asterisk
ENCODING 42
SWIDTH 319 0
DWIDTH 4 0
BBX 4 5 0 5
BITMAP
20
B0
F0
60
D0
ENDCHAR

STARTCHAR plus
ENCODING 43
SWIDTH 479 0
DWIDTH 7 0
BBX 5 6 1 3
BITMAP
20
20
F8
F8
20
20
ENDCHAR

STARTCHAR comma
ENCODING 44
SWIDTH 228 0
DWIDTH 3 0
BBX 2 4 1 -2
BITMAP
C0
C0
40
80
ENDCHAR

STARTCHAR minus
ENCODING 45
SWIDTH 479 0
DWIDTH 7 0
BBX 6 2 1 5
BITMAP
FC
FC
ENDCHAR

STARTCHAR period
ENCODING 46
SWIDTH 228 0
DWIDTH 3 0
BBX 2 2 1 0
BITMAP
C0
C0
ENDCHAR

STARTCHAR slash
ENCODING 47
SWIDTH 228 0
DWIDTH 3 0
BBX 6 11 -1 -1
BITMAP
0C
0C
18
18
30
30
60
60
C0
C0
C0
ENDCHAR

STARTCHAR zero
ENCODING 48
SWIDTH 456 0
DWIDTH 6 0
BBX 5 10 1 0
BITMAP
30
58
58
D8
D8
D8
D8
D0
D0
60
ENDCHAR

STARTCHAR one
ENCODING 49
SWIDTH 456 0
DWIDTH 6 0
BBX 4 10 1 0
BITMAP
10
30
F0
30
30
60
60
60
60
60
ENDCHAR

STARTCHAR two
ENCODING 50
SWIDTH 456 0
DWIDTH 6 0
BBX 6 10 0 0
BITMAP
38
6C
6C
0C
18
18
30
60
C0
F8
ENDCHAR

STARTCHAR three
ENCODING 51
SWIDTH 456 0
DWIDTH 6 0
BBX 6 10 0 0
BITMAP
38
6C
6C
0C
38
0C
0C
CC
D8
70
ENDCHAR

STARTCHAR four
ENCODING 52
SWIDTH 456 0
DWIDTH 6 0
BBX 6 10 0 0
BITMAP
04
0C
1C
2C
6C
D8
D8
FC
18
18
ENDCHAR

STARTCHAR five
ENCODING 53
SWIDTH 456 0
DWIDTH 6 0
BBX 6 10 0 0
BITMAP
3C
30
60
78
6C
0C
0C
CC
D8
70
ENDCHAR

STARTCHAR six
ENCODING 54
SWIDTH 456 0
DWIDTH 6 0
BBX 5 10 1 0
BITMAP
18
30
60
70
D8
D8
D8
D8
D0
60
ENDCHAR

STARTCHAR seven
ENCODING 55
SWIDTH 456 0
DWIDTH 6 0
BBX 6 10 1 0
BITMAP
FC
0C
18
18
30
30
60
60
C0
C0
ENDCHAR

STARTCHAR eight
ENCODING 56
SWIDTH 456 0
DWIDTH 6 0
BBX 6 10 0 0
BITMAP
38
6C
6C
6C
38
70
D8
D8
D8
70
ENDCHAR

STARTCHAR nine
ENCODING 57
SWIDTH 456 0
DWIDTH 6 0
BBX 5 10 1 0
BITMAP
30
58
D8
D8
D8
D8
78
10
30
E0
ENDCHAR

STARTCHAR colon
ENCODING 58
SWIDTH 273 0
DWIDTH 4 0
BBX 3 7 1 0
BITMAP
60
60
00
00
00
C0
C0
ENDCHAR

STARTCHAR semicolon
ENCODING 59
SWIDTH 273 0
DWIDTH 4 0
BBX 3 9 1 -2
BITMAP
60
60
00
00
00
C0
C0
40
80
ENDCHAR

STARTCHAR less
ENCODING 60
SWIDTH 479 0
DWIDTH 7 0
BBX 6 8 1 1
BITMAP
04
1C
78
C0
C0
78
1C
04
ENDCHAR

STARTCHAR equal
ENCODING 61
SWIDTH 479 0
DWIDTH 7 0
BBX 6 5 1 3
BITMAP
FC
FC
00
FC
FC
ENDCHAR

STARTCHAR greater
ENCODING 62
SWIDTH 479 0
DWIDTH 7 0
BBX 6 8 1 1
BITMAP
80
E0
78
0C
0C
78
E0
80
ENDCHAR

STARTCHAR question
ENCODING 63
SWIDTH 501 0
DWIDTH 7 0
BBX 5 10 1 0
BITMAP
70
D8
D8
18
30
60
60
00
C0
C0
ENDCHAR

STARTCHAR at
ENCODING 64
SWIDTH 800 0
DWIDTH 11 0
BBX 10 13 1 -3
BITMAP
1F00
6180
4080
9F40
9340
B240
A240
A2C0
B680
9B00
4040
60C0
1F00
ENDCHAR

STARTCHAR A
ENCODING 65
SWIDTH 592 0
DWIDTH 8 0
BBX 8 10 0 0
BITMAP
0E
1E
1E
36
36
66
7E
63
C3
C3
ENDCHAR

STARTCHAR B
ENCODING 66
SWIDTH 592 0
DWIDTH 8 0
BBX 8 10 0 0
BITMAP
3E
33
33
63
7E
66
66
C6
CC
F8
ENDCHAR

STARTCHAR C
ENCODING 67
SWIDTH 592 0
DWIDTH 8 0
BBX 8 10 1 0
BITMAP
1C
36
63
60
C0
C0
C0
C6
CC
78
ENDCHAR

STARTCHAR D
ENCODING 68
SWIDTH 592 0
DWIDTH 8 0
BBX 8 10 0 0
BITMAP
3C
36
33
63
63
63
C6
C6
CC
F8
ENDCHAR

STARTCHAR E
ENCODING 69
SWIDTH 547 0
DWIDTH 8 0
BBX 8 10 0 0
BITMAP
3F
30
30
60
7E
60
60
C0
C0
FE
ENDCHAR

STARTCHAR F
ENCODING 70
SWIDTH 501 0
DWIDTH 7 0
BBX 8 10 0 0
BITMAP
3F
30
30
60
7E
60
60
C0
C0
C0
ENDCHAR

STARTCHAR G
ENCODING 71
SWIDTH 638 0
DWIDTH 9 0
BBX 8 10 1 0
BITMAP
1E
33
63
60
C0
DE
C6
C6
CC
78
ENDCHAR

STARTCHAR H
ENCODING 72
SWIDTH 592 0
DWIDTH 8 0
BBX 9 10 0 0
BITMAP
3180
3180
3180
6300
7F00
6300
6300
C600
C600
C600
ENDCHAR

STARTCHAR I
ENCODING 73
SWIDTH 228 0
DWIDTH 3 0
BBX 4 10 0 0
BITMAP
30
30
30
60
60
60
60
C0
C0
C0
ENDCHAR

STARTCHAR J
ENCODING 74
SWIDTH 456 0
DWIDTH 6 0
BBX 7 10 0 0
BITMAP
06
06
06
0C
0C
0C
18
D8
D8
70
ENDCHAR

STARTCHAR K
ENCODING 75
SWIDTH 592 0
DWIDTH 8 0
BBX 9 10 0 0
BITMAP
3180
3300
3600
6C00
7800
6C00
6C00
C600
C600
C300
ENDCHAR

STARTCHAR L
ENCODING 76
SWIDTH 501 0
DWIDTH 7 0
BBX 6 10 1 0
BITMAP
30
30
30
60
60
60
60
C0
C0
FC
ENDCHAR

STARTCHAR M
ENCODING 77
SWIDTH 683 0
DWIDTH 10 0
BBX 11 10 0 0
BITMAP
3060
30E0
39E0
7BC0
6AC0
6EC0
6CC0
CD80
C980
C980
ENDCHAR

STARTCHAR N
ENCODING 78
SWIDTH 592 0
DWIDTH 8 0
BBX 9 10 0 0
BITMAP
3180
3180
3180
7B00
7B00
6B00
6F00
CE00
C600
C600
ENDCHAR

STARTCHAR O
ENCODING 79
SWIDTH 638 0
DWIDTH 9 0
BBX 8 10 1 0
BITMAP
1E
33
63
63
C3
C3
C6
C6
CC
78
ENDCHAR

STARTCHAR P
ENCODING 80
SWIDTH 547 0
DWIDTH 8 0
BBX 8 10 0 0
BITMAP
3E
33
33
63
66
7C
60
C0
C0
C0
ENDCHAR

STARTCHAR Q
ENCODING 81
SWIDTH 638 0
DWIDTH 9 0
BBX 8 11 1 -1
BITMAP
1E
33
63
63
C3
C3
C6
DE
CC
7E
06
ENDCHAR

STARTCHAR R
ENCODING 82
SWIDTH 592 0
DWIDTH 8 0
BBX 8 10 0 0
BITMAP
3E
33
33
63
66
7C
6C
CC
C6
C6
ENDCHAR

STARTCHAR S
ENCODING 83
SWIDTH 547 0
DWIDTH 8 0
BBX 8 10 0 0
BITMAP
1E
33
63
70
38
1C
0E
C6
CC
78
ENDCHAR

STARTCHAR T
ENCODING 84
SWIDTH 501 0
DWIDTH 7 0
BBX 8 10 1 0
BITMAP
FF
18
18
30
30
30
30
60
60
60
ENDCHAR

STARTCHAR U
ENCODING 85
SWIDTH 592 0
DWIDTH 8 0
BBX 9 10 0 0
BITMAP
3180
3180
3180
6300
6300
6300
C600
C600
CC00
7800
ENDCHAR

STARTCHAR V
ENCODING 86
SWIDTH 547 0
DWIDTH 8 0
BBX 8 10 1 0
BITMAP
C3
C3
C6
66
6C
6C
78
78
30
30
ENDCHAR

STARTCHAR W
ENCODING 87
SWIDTH 774 0
DWIDTH 11 0
BBX 11 10 1 0
BITMAP
C660
C660
CEC0
CEC0
DEC0
D780
F780
E300
E300
C300
ENDCHAR

STARTCHAR X
ENCODING 88
SWIDTH 547 0
DWIDTH 8 0
BBX 8 10 0 0
BITMAP
63
63
36
3C
1C
18
3C
6C
C6
C6
ENDCHAR

STARTCHAR Y
ENCODING 89
SWIDTH 547 0
DWIDTH 8 0
BBX 8 10 1 0
BITMAP
C3
66
66
2C
38
18
18
30
30
30
ENDCHAR

STARTCHAR Z
ENCODING 90
SWIDTH 501 0
DWIDTH 7 0
BBX 7 10 1 0
BITMAP
7E
06
0C
18
18
30
60
60
C0
FC
ENDCHAR

STARTCHAR bracketleft
ENCODING 91
SWIDTH 273 0
DWIDTH 4 0
BBX 5 12 0 -2
BITMAP
38
30
30
30
60
60
60
60
C0
C0
C0
E0
ENDCHAR

STARTCHAR backslash
ENCODING 92
SWIDTH 228 0
DWIDTH 3 0
BBX 6 11 -1 -1
BITMAP
C0
C0
C0
60
60
30
30
18
18
0C
0C
ENDCHAR

STARTCHAR bracketright
ENCODING 93
SWIDTH 273 0
DWIDTH 4 0
BBX 5 12 0 -2
BITMAP
38
18
18
18
30
30
30
30
60
60
60
E0
ENDCHAR

STARTCHAR asciicircum
ENCODING 94
SWIDTH 479 0
DWIDTH 7 0
BBX 5 6 1 4
BITMAP
20
60
50
50
D8
98
ENDCHAR

STARTCHAR underscore
ENCODING 95
SWIDTH 456 0
DWIDTH 6 0
BBX 7 2 0 -3
BITMAP
FE
FE
ENDCHAR

STARTCHAR quoteleft
ENCODING 96
SWIDTH 228 0
DWIDTH 3 0
BBX 2 4 1 6
BITMAP
40
80
C0
C0
ENDCHAR

STARTCHAR a
ENCODING 97
SWIDTH 456 0
DWIDTH 6 0
BBX 6 7 0 0
BITMAP
38
4C
0C
7C
D8
D8
68
ENDCHAR

STARTCHAR b
ENCODING 98
SWIDTH 501 0
DWIDTH 7 0
BBX 7 10 0 0
BITMAP
30
30
30
6C
76
66
66
C6
EC
D8
ENDCHAR

STARTCHAR c
ENCODING 99
SWIDTH 456 0
DWIDTH 6 0
BBX 6 7 1 0
BITMAP
38
6C
C0
C0
C0
D8
70
ENDCHAR

STARTCHAR d
ENCODING 100
SWIDTH 501 0
DWIDTH 7 0
BBX 7 10 1 0
BITMAP
06
06
06
3C
6C
CC
CC
D8
D8
78
ENDCHAR

STARTCHAR e
ENCODING 101
SWIDTH 456 0
DWIDTH 6 0
BBX 5 7 1 0
BITMAP
38
68
D8
F0
C0
C0
70
ENDCHAR

STARTCHAR f
ENCODING 102
SWIDTH 273 0
DWIDTH 4 0
BBX 5 10 0 0
BITMAP
18
30
30
F8
60
60
60
C0
C0
C0
ENDCHAR

STARTCHAR g
ENCODING 103
SWIDTH 501 0
DWIDTH 7 0
BBX 8 10 0 -3
BITMAP
1D
33
66
66
66
6C
3C
0C
D8
70
ENDCHAR

STARTCHAR h
ENCODING 104
SWIDTH 501 0
DWIDTH 7 0
BBX 7 10 0 0
BITMAP
30
30
30
6C
76
66
66
CC
CC
CC
ENDCHAR

STARTCHAR i
ENCODING 105
SWIDTH 228 0
DWIDTH 3 0
BBX 3 10 0 0
BITMAP
60
60
00
60
60
60
C0
C0
C0
C0
ENDCHAR

STARTCHAR j
ENCODING 106
SWIDTH 228 0
DWIDTH 3 0
BBX 5 13 -2 -3
BITMAP
18
18
00
18
18
18
18
30
30
30
30
60
C0
ENDCHAR

STARTCHAR k
ENCODING 107
SWIDTH 456 0
DWIDTH 6 0
BBX 7 10 0 0
BITMAP
30
30
30
66
6C
78
70
D0
D8
D8
ENDCHAR

STARTCHAR l
ENCODING 108
SWIDTH 228 0
DWIDTH 3 0
BBX 4 10 0 0
BITMAP
30
30
30
60
60
60
60
C0
C0
C0
ENDCHAR

STARTCHAR m
ENCODING 109
SWIDTH 729 0
DWIDTH 9 0
BBX 9 7 0 0
BITMAP
6D00
7680
6D80
6D80
DB00
DB00
DB00
ENDCHAR

STARTCHAR n
ENCODING 110
SWIDTH 501 0
DWIDTH 7 0
BBX 7 7 0 0
BITMAP
6C
76
66
66
CC
CC
CC
ENDCHAR

STARTCHAR o
ENCODING 111
SWIDTH 501 0
DWIDTH 7 0
BBX 6 7 1 0
BITMAP
38
6C
CC
CC
CC
D8
70
ENDCHAR

STARTCHAR p
ENCODING 112
SWIDTH 501 0
DWIDTH 7 0
BBX 8 10 -1 -3
BITMAP
36
3B
33
63
63
76
6C
C0
C0
C0
ENDCHAR

STARTCHAR q
ENCODING 113
SWIDTH 501 0
DWIDTH 7 0
BBX 6 10 1 -3
BITMAP
34
6C
CC
CC
D8
D8
78
30
30
30
ENDCHAR

STARTCHAR r
ENCODING 114
SWIDTH 319 0
DWIDTH 4 0
BBX 5 7 0 0
BITMAP
68
78
60
C0
C0
C0
C0
ENDCHAR

STARTCHAR s
ENCODING 115
SWIDTH 456 0
DWIDTH 6 0
BBX 6 7 0 0
BITMAP
38
6C
60
30
18
D8
70
ENDCHAR

STARTCHAR t
ENCODING 116
SWIDTH 273 0
DWIDTH 4 0
BBX 5 10 0 0
BITMAP
30
30
30
F8
60
60
C0
C0
C0
60
ENDCHAR

STARTCHAR u
ENCODING 117
SWIDTH 501 0
DWIDTH 7 0
BBX 7 7 0 0
BITMAP
66
66
66
CC
CC
DC
6C
ENDCHAR

STARTCHAR v
ENCODING 118
SWIDTH 456 0
DWIDTH 6 0
BBX 6 7 1 0
BITMAP
CC
CC
D8
D8
70
60
60
ENDCHAR

STARTCHAR w
ENCODING 119
SWIDTH 638 0
DWIDTH 9 0
BBX 9 7 1 0
BITMAP
C980
D980
DB00
DB00
EE00
EE00
CC00
ENDCHAR

STARTCHAR x
ENCODING 120
SWIDTH 456 0
DWIDTH 6 0
BBX 7 7 0 0
BITMAP
66
6C
18
30
38
6C
CC
ENDCHAR

STARTCHAR y
ENCODING 121
SWIDTH 456 0
DWIDTH 6 0
BBX 7 10 0 -3
BITMAP
66
66
6C
6C
38
38
30
30
60
C0
ENDCHAR

STARTCHAR z
ENCODING 122
SWIDTH 410 0
DWIDTH 6 0
BBX 6 7 0 0
BITMAP
7C
0C
18
30
60
C0
F8
ENDCHAR

STARTCHAR braceleft
ENCODING 123
SWIDTH 319 0
DWIDTH 4 0
BBX 5 13 0 -3
BITMAP
18
30
30
30
60
60
C0
60
60
C0
C0
C0
60
ENDCHAR

STARTCHAR bar
ENCODING 124
SWIDTH 230 0
DWIDTH 3 0
BBX 2 14 1 -4
BITMAP
C0
C0
C0
C0
C0
C0
C0
C0
C0
C0
C0
C0
C0
C0
ENDCHAR

STARTCHAR braceright
ENCODING 125
SWIDTH 319 0
DWIDTH 4 0
BBX 5 13 0 -3
BITMAP
30
18
18
18
30
30
18
30
30
60
60
60
C0
ENDCHAR

STARTCHAR asciitilde
ENCODING 126
SWIDTH 479 0
DWIDTH 7 0
BBX 6 3 1 3
BITMAP
64
FC
98
ENDCHAR

STARTCHAR space
ENCODING 160
SWIDTH 228 0
DWIDTH 4 0
BBX 0 0 0 0
BITMAP
ENDCHAR

STARTCHAR Aogonek
ENCODING 161
SWIDTH 592 0
DWIDTH 8 0
BBX 9 13 0 -3
BITMAP
0E00
1E00
1E00
3600
3600
6600
7E00
6300
C300
C300
0300
0300
0180
ENDCHAR

STARTCHAR afii240
ENCODING 162
SWIDTH 556 0
DWIDTH 8 0
BBX 7 7 1 0
BITMAP
66
6C
78
F0
D8
D8
CC
ENDCHAR

STARTCHAR Rcommaaccent
ENCODING 163
SWIDTH 592 0
DWIDTH 8 0
BBX 8 14 0 -4
BITMAP
3E
33
33
63
66
7C
6C
CC
C6
C6
00
18
18
30
ENDCHAR

STARTCHAR currency
ENCODING 164
SWIDTH 456 0
DWIDTH 6 0
BBX 7 7 0 2
BITMAP
44
FE
6C
44
6C
FE
44
ENDCHAR

STARTCHAR Itilde
ENCODING 165
SWIDTH 228 0
DWIDTH 3 0
BBX 6 13 0 0
BITMAP
34
58
00
30
30
30
60
60
60
60
C0
C0
C0
ENDCHAR

STARTCHAR Lcommaaccent
ENCODING 166
SWIDTH 501 0
DWIDTH 7 0
BBX 6 14 1 -4
BITMAP
30
30
30
60
60
60
60
C0
C0
FC
00
30
30
60
ENDCHAR

STARTCHAR section
ENCODING 167
SWIDTH 456 0
DWIDTH 6 0
BBX 8 13 -1 -3
BITMAP
0E
1B
18
30
78
6C
6C
6C
3C
18
18
D8
70
ENDCHAR

STARTCHAR hungarumlaut
ENCODING 168
SWIDTH 273 0
DWIDTH 4 0
BBX 6 2 0 8
BITMAP
6C
D8
ENDCHAR

STARTCHAR Scaron
ENCODING 169
SWIDTH 547 0
DWIDTH 8 0
BBX 8 13 0 0
BITMAP
1B
0E
00
1E
33
63
70
38
1C
0E
C6
CC
78
ENDCHAR

STARTCHAR Emacron
ENCODING 170
SWIDTH 547 0
DWIDTH 8 0
BBX 8 12 0 0
BITMAP
1F
00
3F
30
30
60
7E
60
60
C0
C0
FE
ENDCHAR

STARTCHAR Gcommaaccent
ENCODING 171
SWIDTH 638 0
DWIDTH 9 0
BBX 8 14 1 -4
BITMAP
1E
33
63
60
C0
DE
C6
C6
CC
78
00
30
30
60
ENDCHAR

STARTCHAR afii237
ENCODING 172
SWIDTH 611 0
DWIDTH 7 0
BBX 8 10 1 0
BITMAP
FF
18
18
30
FC
30
30
60
60
60
ENDCHAR

STARTCHAR hyphen
ENCODING 173
SWIDTH 273 0
DWIDTH 4 0
BBX 3 2 1 3
BITMAP
E0
E0
ENDCHAR

STARTCHAR Zcaron
ENCODING 174
SWIDTH 501 0
DWIDTH 7 0
BBX 8 13 1 0
BITMAP
1B
0E
00
7E
06
0C
18
18
30
60
60
C0
FC
ENDCHAR

STARTCHAR macron
ENCODING 175
SWIDTH 273 0
DWIDTH 4 0
BBX 4 2 0 9
BITMAP
F0
F0
ENDCHAR

STARTCHAR degree
ENCODING 176
SWIDTH 328 0
DWIDTH 5 0
BBX 4 4 1 6
BITMAP
60
90
90
60
ENDCHAR

STARTCHAR aogonek
ENCODING 177
SWIDTH 456 0
DWIDTH 6 0
BBX 6 10 0 -3
BITMAP
38
4C
0C
7C
D8
D8
68
18
18
0C
ENDCHAR

STARTCHAR ogonek
ENCODING 178
SWIDTH 273 0
DWIDTH 4 0
BBX 3 3 1 -3
BITMAP
C0
C0
60
ENDCHAR

STARTCHAR rcommaaccent
ENCODING 179
SWIDTH 319 0
DWIDTH 4 0
BBX 6 11 -1 -4
BITMAP
34
3C
30
60
60
60
60
00
60
60
C0
ENDCHAR

STARTCHAR acute
ENCODING 180
SWIDTH 273 0
DWIDTH 4 0
BBX 3 2 1 8
BITMAP
60
C0
ENDCHAR

STARTCHAR itilde
ENCODING 181
SWIDTH 228 0
DWIDTH 3 0
BBX 5 10 0 0
BITMAP
68
B0
00
60
60
60
C0
C0
C0
C0
ENDCHAR

STARTCHAR lcommaaccent
ENCODING 182
SWIDTH 228 0
DWIDTH 3 0
BBX 5 14 -1 -4
BITMAP
18
18
18
30
30
30
30
60
60
60
00
60
60
C0
ENDCHAR

STARTCHAR caron
ENCODING 183
SWIDTH 273 0
DWIDTH 4 0
BBX 5 2 0 8
BITMAP
D8
70
ENDCHAR

STARTCHAR commaaccent
ENCODING 184
SWIDTH 333 0
DWIDTH 5 0
BBX 3 3 0 -4
BITMAP
60
60
C0
ENDCHAR

STARTCHAR scaron
ENCODING 185
SWIDTH 456 0
DWIDTH 6 0
BBX 6 10 0 0
BITMAP
6C
38
00
38
6C
60
30
18
D8
70
ENDCHAR

STARTCHAR emacron
ENCODING 186
SWIDTH 456 0
DWIDTH 6 0
BBX 6 9 1 0
BITMAP
3C
00
38
68
D8
F0
C0
C0
70
ENDCHAR

STARTCHAR gcommaaccent
ENCODING 187
SWIDTH 501 0
DWIDTH 7 0
BBX 8 14 0 -3
BITMAP
06
0C
0C
00
1D
33
66
66
66
6C
3C
0C
D8
70
ENDCHAR

STARTCHAR afii253
ENCODING 188
SWIDTH 333 0
DWIDTH 4 0
BBX 6 10 -1 0
BITMAP
18
18
18
7C
30
30
FC
60
60
30
ENDCHAR

STARTCHAR afii238
ENCODING 189
SWIDTH 723 0
DWIDTH 10 0
BBX 10 10 0 0
BITMAP
3780
3CC0
30C0
30C0
6180
6180
6180
C300
C300
CE00
ENDCHAR

STARTCHAR zcaron
ENCODING 190
SWIDTH 410 0
DWIDTH 6 0
BBX 7 10 0 0
BITMAP
36
1C
00
7C
0C
18
30
60
C0
F8
ENDCHAR

STARTCHAR afii254
ENCODING 191
SWIDTH 611 0
DWIDTH 7 0
BBX 7 10 0 -3
BITMAP
6C
76
66
66
CC
CC
CC
18
18
70
ENDCHAR

STARTCHAR Amacron
ENCODING 192
SWIDTH 592 0
DWIDTH 8 0
BBX 8 12 0 0
BITMAP
1F
00
0E
1E
1E
36
36
66
7E
63
C3
C3
ENDCHAR

STARTCHAR Aacute
ENCODING 193
SWIDTH 592 0
DWIDTH 8 0
BBX 8 13 0 0
BITMAP
03
06
00
0E
1E
1E
36
36
66
7E
63
C3
C3
ENDCHAR

STARTCHAR Acircumflex
ENCODING 194
SWIDTH 592 0
DWIDTH 8 0
BBX 8 13 0 0
BITMAP
0E
1B
00
0E
1E
1E
36
36
66
7E
63
C3
C3
ENDCHAR

STARTCHAR Atilde
ENCODING 195
SWIDTH 592 0
DWIDTH 8 0
BBX 8 13 0 0
BITMAP
0D
16
00
0E
1E
1E
36
36
66
7E
63
C3
C3
ENDCHAR

STARTCHAR Adieresis
ENCODING 196
SWIDTH 592 0
DWIDTH 8 0
BBX 8 13 0 0
BITMAP
1B
1B
00
0E
1E
1E
36
36
66
7E
63
C3
C3
ENDCHAR

STARTCHAR Aring
ENCODING 197
SWIDTH 592 0
DWIDTH 8 0
BBX 8 13 0 0
BITMAP
0E
11
11
0E
1E
1E
36
36
66
7E
63
C3
C3
ENDCHAR

STARTCHAR AE
ENCODING 198
SWIDTH 820 0
DWIDTH 11 0
BBX 12 10 0 0
BITMAP
0FF0
0D80
1980
1B00
33E0
3300
7E00
6600
C600
C7E0
ENDCHAR

STARTCHAR Iogonek
ENCODING 199
SWIDTH 228 0
DWIDTH 3 0
BBX 5 14 -1 -4
BITMAP
18
18
18
30
30
30
30
60
60
60
00
60
60
C0
ENDCHAR

STARTCHAR Ccaron
ENCODING 200
SWIDTH 592 0
DWIDTH 8 0
BBX 8 13 1 0
BITMAP
1B
0E
00
1C
36
63
60
C0
C0
C0
C6
CC
78
ENDCHAR

STARTCHAR Eacute
ENCODING 201
SWIDTH 547 0
DWIDTH 8 0
BBX 8 13 0 0
BITMAP
06
0C
00
3F
30
30
60
7E
60
60
C0
C0
FE
ENDCHAR

STARTCHAR Eogonek
ENCODING 202
SWIDTH 547 0
DWIDTH 8 0
BBX 8 13 0 -3
BITMAP
3F
30
30
60
7E
60
60
C0
C0
FE
0C
0C
06
ENDCHAR

STARTCHAR Edieresis
ENCODING 203
SWIDTH 547 0
DWIDTH 8 0
BBX 8 13 0 0
BITMAP
1B
1B
00
3F
30
30
60
7E
60
60
C0
C0
FE
ENDCHAR

STARTCHAR Edotaccent
ENCODING 204
SWIDTH 547 0
DWIDTH 8 0
BBX 8 13 0 0
BITMAP
0C
0C
00
3F
30
30
60
7E
60
60
C0
C0
FE
ENDCHAR

STARTCHAR Iacute
ENCODING 205
SWIDTH 228 0
DWIDTH 3 0
BBX 5 13 0 0
BITMAP
18
30
00
30
30
30
60
60
60
60
C0
C0
C0
ENDCHAR

STARTCHAR Icircumflex
ENCODING 206
SWIDTH 228 0
DWIDTH 3 0
BBX 6 13 0 0
BITMAP
38
6C
00
30
30
30
60
60
60
60
C0
C0
C0
ENDCHAR

STARTCHAR Imacron
ENCODING 207
SWIDTH 228 0
DWIDTH 3 0
BBX 5 12 0 0
BITMAP
78
00
30
30
30
60
60
60
60
C0
C0
C0
ENDCHAR

STARTCHAR Eth
ENCODING 208
SWIDTH 592 0
DWIDTH 8 0
BBX 8 10 0 0
BITMAP
3C
36
33
63
FB
63
C6
C6
CC
F8
ENDCHAR

STARTCHAR Ncommaaccent
ENCODING 209
SWIDTH 592 0
DWIDTH 8 0
BBX 9 14 0 -4
BITMAP
3180
3180
3180
7B00
7B00
6B00
6F00
CE00
C600
C600
0000
3000
3000
6000
ENDCHAR

STARTCHAR Omacron
ENCODING 210
SWIDTH 638 0
DWIDTH 9 0
BBX 8 12 1 0
BITMAP
1F
00
1E
33
63
63
C3
C3
C6
C6
CC
78
ENDCHAR

STARTCHAR Kcommaaccent
ENCODING 211
SWIDTH 592 0
DWIDTH 8 0
BBX 9 14 0 -4
BITMAP
3180
3300
3600
6C00
7800
6C00
6C00
C600
C600
C300
0000
3000
3000
6000
ENDCHAR

STARTCHAR Ocircumflex
ENCODING 212
SWIDTH 638 0
DWIDTH 9 0
BBX 9 13 1 0
BITMAP
0700
0D80
0000
1E00
3300
6300
6300
C300
C300
C600
C600
CC00
7800
ENDCHAR

STARTCHAR Otilde
ENCODING 213
SWIDTH 638 0
DWIDTH 9 0
BBX 10 13 1 0
BITMAP
0740
0B80
0000
1E00
3300
6300
6300
C300
C300
C600
C600
CC00
7800
ENDCHAR

STARTCHAR Odieresis
ENCODING 214
SWIDTH 638 0
DWIDTH 9 0
BBX 9 13 1 0
BITMAP
0D80
0D80
0000
1E00
3300
6300
6300
C300
C300
C600
C600
CC00
7800
ENDCHAR

STARTCHAR multiply
ENCODING 215
SWIDTH 479 0
DWIDTH 7 0
BBX 5 6 1 3
BITMAP
D8
D8
70
70
D8
D8
ENDCHAR

STARTCHAR Oslash
ENCODING 216
SWIDTH 638 0
DWIDTH 9 0
BBX 8 10 1 0
BITMAP
1F
33
67
6B
CB
D3
D6
E6
EC
F8
ENDCHAR

STARTCHAR Uogonek
ENCODING 217
SWIDTH 592 0
DWIDTH 8 0
BBX 9 13 0 -3
BITMAP
3180
3180
3180
6300
6300
6300
C600
C600
CC00
7800
3000
3000
1800
ENDCHAR

STARTCHAR Uacute
ENCODING 218
SWIDTH 592 0
DWIDTH 8 0
BBX 9 13 0 0
BITMAP
0300
0600
0000
3180
3180
3180
6300
6300
6300
C600
C600
CC00
7800
ENDCHAR

STARTCHAR Ucircumflex
ENCODING 219
SWIDTH 592 0
DWIDTH 8 0
BBX 9 13 0 0
BITMAP
0700
0D80
0000
3180
3180
3180
6300
6300
6300
C600
C600
CC00
7800
ENDCHAR

STARTCHAR Udieresis
ENCODING 220
SWIDTH 592 0
DWIDTH 8 0
BBX 10 13 0 0
BITMAP
0CC0
0CC0
0000
3180
3180
3180
6300
6300
6300
C600
C600
CC00
7800
ENDCHAR

STARTCHAR Utilde
ENCODING 221
SWIDTH 592 0
DWIDTH 8 0
BBX 9 13 0 0
BITMAP
0E80
1700
0000
3180
3180
3180
6300
6300
6300
C600
C600
CC00
7800
ENDCHAR

STARTCHAR Umacron
ENCODING 222
SWIDTH 592 0
DWIDTH 8 0
BBX 9 12 0 0
BITMAP
1F00
0000
3180
3180
3180
6300
6300
6300
C600
C600
CC00
7800
ENDCHAR

STARTCHAR germandbls
ENCODING 223
SWIDTH 501 0
DWIDTH 7 0
BBX 7 10 0 0
BITMAP
1C
36
36
36
66
6C
66
C6
CC
D8
ENDCHAR

STARTCHAR amacron
ENCODING 224
SWIDTH 456 0
DWIDTH 6 0
BBX 6 9 0 0
BITMAP
3C
00
38
4C
0C
7C
D8
D8
68
ENDCHAR

STARTCHAR aacute
ENCODING 225
SWIDTH 456 0
DWIDTH 6 0
BBX 6 10 0 0
BITMAP
0C
18
00
38
4C
0C
7C
D8
D8
68
ENDCHAR

STARTCHAR acircumflex
ENCODING 226
SWIDTH 456 0
DWIDTH 6 0
BBX 7 10 0 0
BITMAP
1C
36
00
38
4C
0C
7C
D8
D8
68
ENDCHAR

STARTCHAR atilde
ENCODING 227
SWIDTH 456 0
DWIDTH 6 0
BBX 7 10 0 0
BITMAP
1A
2C
00
38
4C
0C
7C
D8
D8
68
ENDCHAR

STARTCHAR adieresis
ENCODING 228
SWIDTH 456 0
DWIDTH 6 0
BBX 7 10 0 0
BITMAP
36
36
00
38
4C
0C
7C
D8
D8
68
ENDCHAR

STARTCHAR aring
ENCODING 229
SWIDTH 456 0
DWIDTH 6 0
BBX 7 11 0 0
BITMAP
1C
22
1C
00
38
4C
0C
7C
D8
D8
68
ENDCHAR

STARTCHAR ae
ENCODING 230
SWIDTH 729 0
DWIDTH 10 0
BBX 10 7 0 0
BITMAP
3B80
4EC0
0CC0
7F80
D800
DD80
6700
ENDCHAR

STARTCHAR iogonek
ENCODING 231
SWIDTH 228 0
DWIDTH 3 0
BBX 3 13 0 -3
BITMAP
60
60
00
60
60
60
C0
C0
C0
C0
C0
C0
60
ENDCHAR

STARTCHAR ccaron
ENCODING 232
SWIDTH 456 0
DWIDTH 6 0
BBX 6 10 1 0
BITMAP
6C
38
00
38
6C
C0
C0
C0
D8
70
ENDCHAR

STARTCHAR eacute
ENCODING 233
SWIDTH 456 0
DWIDTH 6 0
BBX 6 10 1 0
BITMAP
0C
18
00
38
68
D8
F0
C0
C0
70
ENDCHAR

STARTCHAR eogonek
ENCODING 234
SWIDTH 456 0
DWIDTH 6 0
BBX 5 10 1 -3
BITMAP
38
68
D8
F0
C0
C0
70
30
30
18
ENDCHAR

STARTCHAR edieresis
ENCODING 235
SWIDTH 456 0
DWIDTH 6 0
BBX 6 10 1 0
BITMAP
6C
6C
00
38
68
D8
F0
C0
C0
70
ENDCHAR

STARTCHAR edotaccent
ENCODING 236
SWIDTH 456 0
DWIDTH 6 0
BBX 5 10 1 0
BITMAP
18
18
00
38
68
D8
F0
C0
C0
70
ENDCHAR

STARTCHAR iacute
ENCODING 237
SWIDTH 228 0
DWIDTH 3 0
BBX 4 10 0 0
BITMAP
30
60
00
60
60
60
C0
C0
C0
C0
ENDCHAR

STARTCHAR icircumflex
ENCODING 238
SWIDTH 228 0
DWIDTH 3 0
BBX 5 10 0 0
BITMAP
70
D8
00
60
60
60
C0
C0
C0
C0
ENDCHAR

STARTCHAR imacron
ENCODING 239
SWIDTH 228 0
DWIDTH 3 0
BBX 6 10 0 0
BITMAP
74
B8
00
60
60
60
C0
C0
C0
C0
ENDCHAR

STARTCHAR dcroat
ENCODING 240
SWIDTH 501 0
DWIDTH 7 0
BBX 8 10 1 0
BITMAP
06
1F
06
3C
6C
CC
CC
D8
D8
78
ENDCHAR

STARTCHAR ncommaaccent
ENCODING 241
SWIDTH 501 0
DWIDTH 7 0
BBX 7 11 0 -4
BITMAP
6C
76
66
66
CC
CC
CC
00
30
30
60
ENDCHAR

STARTCHAR omacron
ENCODING 242
SWIDTH 501 0
DWIDTH 7 0
BBX 6 9 1 0
BITMAP
3C
00
38
6C
CC
CC
CC
D8
70
ENDCHAR

STARTCHAR kcommaaccent
ENCODING 243
SWIDTH 456 0
DWIDTH 6 0
BBX 7 14 0 -4
BITMAP
30
30
30
66
6C
78
70
D0
D8
D8
00
60
60
C0
ENDCHAR

STARTCHAR ocircumflex
ENCODING 244
SWIDTH 501 0
DWIDTH 7 0
BBX 7 10 1 0
BITMAP
1C
36
00
38
6C
CC
CC
CC
D8
70
ENDCHAR

STARTCHAR otilde
ENCODING 245
SWIDTH 501 0
DWIDTH 7 0
BBX 7 10 1 0
BITMAP
1A
2C
00
38
6C
CC
CC
CC
D8
70
ENDCHAR

STARTCHAR odieresis
ENCODING 246
SWIDTH 501 0
DWIDTH 7 0
BBX 6 10 1 0
BITMAP
6C
6C
00
38
6C
CC
CC
CC
D8
70
ENDCHAR

STARTCHAR divide
ENCODING 247
SWIDTH 479 0
DWIDTH 7 0
BBX 6 8 1 2
BITMAP
30
30
00
FC
FC
00
30
30
ENDCHAR

STARTCHAR oslash
ENCODING 248
SWIDTH 501 0
DWIDTH 7 0
BBX 6 7 1 0
BITMAP
3C
6C
DC
EC
EC
D8
F0
ENDCHAR

STARTCHAR uogonek
ENCODING 249
SWIDTH 501 0
DWIDTH 7 0
BBX 7 10 0 -3
BITMAP
66
66
66
CC
CC
DC
6C
0C
0C
06
ENDCHAR

STARTCHAR uacute
ENCODING 250
SWIDTH 501 0
DWIDTH 7 0
BBX 7 10 0 0
BITMAP
0C
18
00
66
66
66
CC
CC
DC
6C
ENDCHAR

STARTCHAR ucircumflex
ENCODING 251
SWIDTH 501 0
DWIDTH 7 0
BBX 7 10 0 0
BITMAP
1C
36
00
66
66
66
CC
CC
DC
6C
ENDCHAR

STARTCHAR udieresis
ENCODING 252
SWIDTH 501 0
DWIDTH 7 0
BBX 7 10 0 0
BITMAP
36
36
00
66
66
66
CC
CC
DC
6C
ENDCHAR

STARTCHAR utilde
ENCODING 253
SWIDTH 501 0
DWIDTH 7 0
BBX 7 10 0 0
BITMAP
1A
2C
00
66
66
66
CC
CC
DC
6C
ENDCHAR

STARTCHAR umacron
ENCODING 254
SWIDTH 501 0
DWIDTH 7 0
BBX 7 9 0 0
BITMAP
3C
00
66
66
66
CC
CC
DC
6C
ENDCHAR

STARTCHAR dotaccent
ENCODING 255
SWIDTH 273 0
DWIDTH 4 0
BBX 2 2 1 8
BITMAP
C0
C0
ENDCHAR
ENDFONT
